<svg width="274" height="261" viewBox="0 0 274 261" fill="none" xmlns="http://www.w3.org/2000/svg">
<mask id="mask0_42_587" style="mask-type:luminance" maskUnits="userSpaceOnUse" x="0" y="0" width="274" height="261">
<path d="M0 0.505371H273.979V260.664H0V0.505371Z" fill="white"/>
</mask>
<g mask="url(#mask0_42_587)">
<path fill-rule="evenodd" clip-rule="evenodd" d="M136.484 0.505371C61.1094 0.505371 0 58.5543 0 130.164C0 201.764 61.1094 259.808 136.484 259.808C211.87 259.808 272.974 201.764 272.974 130.164C272.974 58.5543 211.87 0.505371 136.484 0.505371ZM136.484 67.3707C99.9896 67.3707 70.3906 95.4873 70.3906 130.164C70.3906 164.831 99.9896 192.943 136.484 192.943C172.99 192.943 202.589 164.831 202.589 130.164C202.589 95.4873 172.99 67.3707 136.484 67.3707Z" fill="#E7EFE7"/>
</g>
</svg>
