<svg width="59" height="64" viewBox="0 0 59 64" fill="none" xmlns="http://www.w3.org/2000/svg">
<mask id="mask0_192_34" style="mask-type:luminance" maskUnits="userSpaceOnUse" x="13" y="0" width="33" height="39">
<path d="M13.4282 0H45.457V38.2947H13.4282V0Z" fill="white"/>
</mask>
<g mask="url(#mask0_192_34)">
<path d="M17.2596 17.1454C17.3013 17.135 17.3483 17.1298 17.3743 17.1246L17.661 17.0672V16.2123C17.661 15.6232 17.7444 15.0446 17.8956 14.4972C18.4169 12.6414 19.7775 11.0723 21.6594 10.5093C21.8679 10.4467 22.0921 10.3946 22.311 10.3581C22.3319 10.4102 22.358 10.4624 22.3945 10.5093C22.3997 10.5354 22.4205 10.5562 22.4257 10.5718C22.5665 10.9107 22.7594 11.2287 22.9939 11.4893C24.61 13.9186 26.7838 15.8526 29.2652 17.1819C32.6172 18.9908 36.5478 19.705 40.4732 19.0221C40.6817 18.9908 40.8746 18.9543 41.0831 18.9074C41.3594 18.8553 41.6409 18.7823 41.9224 18.7198L41.9328 18.8553C41.9433 19.0951 41.9433 19.3714 41.9172 19.6946C41.8963 20.0647 41.839 20.4348 41.7712 20.8623C41.7399 21.076 41.7087 21.3002 41.6774 21.5348C41.5783 22.3428 41.3698 23.2811 40.5827 24.0057C40.4836 24.0996 40.3793 24.183 40.2699 24.2768L40.1604 24.3602C39.8685 24.6157 39.5401 24.892 39.269 25.2256C38.9197 25.6583 38.7946 26.1587 38.6695 26.6696C38.6121 26.9198 38.5496 27.1752 38.4557 27.4046C38.1325 28.2178 37.7937 28.906 37.4184 29.5002C36.6156 30.8139 35.526 31.9556 34.2801 32.8053C33.9778 33.0086 33.6598 33.1963 33.3261 33.3839C30.6258 34.8905 27.7899 34.7549 25.0844 33.3996L25.0531 33.3787C24.7351 33.2067 24.4171 33.0138 24.1095 32.8053C21.7793 31.2153 20.1841 28.8121 19.3918 25.7208C19.3501 25.5801 19.2719 25.2099 18.9122 24.8711L18.7714 24.746L18.615 24.6626C17.2648 23.938 16.8322 22.5617 16.7018 21.5244C16.6862 21.394 16.6601 21.2637 16.6445 21.123C16.6393 21.1177 16.6393 21.1021 16.6393 21.0917L16.608 20.8362C16.5455 20.4348 16.4829 20.0647 16.462 19.705C16.4516 19.46 16.4412 19.1629 16.4516 18.8449L16.4464 18.6676C16.4151 18.0473 16.7696 17.2601 17.2596 17.1454ZM13.8816 21.6703L13.9129 21.8736C14.1735 24.037 15.1849 25.7782 16.78 26.8364C17.7966 30.4229 19.7306 33.2171 22.5248 35.1251C26.7473 38.0026 31.6111 38.0131 35.8597 35.1251C37.4288 34.0564 38.805 32.6228 39.8163 30.9755C40.2699 30.2457 40.6817 29.422 41.0675 28.4472C41.2291 28.0406 41.3229 27.6705 41.4167 27.3056C41.448 27.1805 41.4845 27.0241 41.5158 26.9354C41.62 26.8103 41.8181 26.6539 41.9954 26.5028L42.1049 26.4089C42.2195 26.3047 42.3394 26.2004 42.475 26.0857C43.9711 24.7095 44.3256 23.0257 44.4664 21.8893C44.4976 21.6807 44.5185 21.4774 44.5602 21.2533C44.6227 20.8362 44.6905 20.3566 44.7218 19.8718C44.7531 19.4704 44.7531 19.1159 44.7426 18.7823C44.7583 18.4435 44.7531 16.1706 44.7531 16.1654C44.7531 12.24 44.018 7.9497 41.4324 4.80626C38.5392 1.29792 33.7275 0.03637 29.3382 0.104139C25.0374 0.171909 20.7315 1.60027 17.8591 4.31103C15.555 6.48485 14.5489 9.52924 14.1735 12.6049C14.137 12.9125 14.0432 14.8674 13.965 16.8848C13.8868 18.8292 13.8295 20.8362 13.8607 21.4722C13.8607 21.6026 13.866 21.6703 13.8816 21.6703Z" fill="#4D6C4A"/>
</g>
<mask id="mask1_192_34" style="mask-type:luminance" maskUnits="userSpaceOnUse" x="0" y="39" width="59" height="25">
<path d="M0.5 39.6292H58.5V64H0.5V39.6292Z" fill="white"/>
</mask>
<g mask="url(#mask1_192_34)">
<path d="M58.0047 62.4309C57.9995 62.3892 57.9943 62.3527 57.989 62.311C57.5042 58.078 57.0559 53.8346 56.6024 49.6017C56.5659 49.2837 56.5242 48.9866 56.4825 48.7103C56.373 47.9857 56.2166 47.3966 55.9612 46.9014C55.7839 46.526 55.5598 46.2132 55.2783 45.9369C54.929 45.7858 54.5432 45.6502 54.1366 45.4991C54.1158 45.4991 54.0845 45.4886 54.0636 45.4886C52.5362 44.9673 50.9828 44.519 49.4397 44.0603C48.0374 43.6537 46.6299 43.2575 45.2224 42.8665C42.0059 41.7874 38.9824 40.7865 38.7999 40.7761C38.753 40.9533 38.7061 41.1358 38.654 41.3026C38.2682 42.7466 37.8981 44.1802 37.5019 45.6137C37.1995 46.698 36.8972 47.7667 36.5688 48.8406C35.6565 51.7755 34.6347 54.6896 33.613 57.5932C33.6078 57.6297 33.5921 57.661 33.5817 57.6923C33.4618 58.0259 33.3054 58.3335 33.149 58.6515C33.0708 58.0989 32.8727 55.998 32.6694 53.7408C32.3827 50.5609 32.0804 47.0473 32.0804 47.0473L33.1855 44.6963C33.2846 44.4877 33.2794 44.2375 33.1751 44.0238L32.5704 42.8509C32.4401 42.5954 32.1742 42.4338 31.8927 42.4338H26.7162C26.4242 42.4338 26.1636 42.5954 26.0333 42.8509L25.4286 44.0238C25.3191 44.2375 25.3191 44.4877 25.4181 44.6963L26.5285 47.0473C26.5285 47.0473 26.2261 50.5609 25.9342 53.7408C25.7309 55.998 25.5328 58.0989 25.4546 58.6515C25.293 58.3335 25.1366 58.0259 25.0272 57.6923C25.0115 57.661 24.9959 57.6297 24.9907 57.5932C23.9689 54.6896 22.9472 51.7755 22.0349 48.8406C21.7065 47.7667 21.3989 46.698 21.107 45.6137C20.7108 44.1802 20.3354 42.7466 19.9445 41.3026C19.8975 41.1358 19.8506 40.9533 19.8037 40.7761C19.6213 40.7865 16.5821 41.7926 13.3604 42.8769C11.9581 43.2627 10.561 43.6537 9.17438 44.0603C7.6209 44.519 6.07785 44.9673 4.55043 45.4886C4.51915 45.4886 4.4983 45.4991 4.47745 45.4991C4.07083 45.6502 3.69029 45.7858 3.34101 45.9369C3.05951 46.208 2.83014 46.5156 2.65289 46.8857C2.40267 47.3809 2.24107 47.9804 2.13159 48.7103C2.07946 48.9866 2.04818 49.2837 2.01691 49.6017C1.55816 53.8346 1.0942 58.078 0.614606 62.311C0.609392 62.3527 0.60418 62.3892 0.598967 62.4309C0.479068 63.4683 1.28709 64.391 2.34533 64.391C2.75194 64.391 3.22633 64.3962 3.74241 64.3962H3.75805C3.98221 64.4275 4.11254 64.4222 4.11254 64.4222H54.4911C54.4911 64.4222 54.6214 64.4275 54.8404 64.3962C54.8456 64.3962 54.8456 64.3962 54.8456 64.3962C55.3773 64.3962 55.8517 64.391 56.2687 64.391C57.3166 64.391 58.135 63.4683 58.0047 62.4309Z" fill="#4D6C4A"/>
</g>
</svg>
