<svg width="55" height="68" viewBox="0 0 55 68" fill="none" xmlns="http://www.w3.org/2000/svg">
<mask id="mask0_192_100" style="mask-type:luminance" maskUnits="userSpaceOnUse" x="23" y="0" width="14" height="63">
<path d="M23.2007 0.0286407H36.534V62.487H23.2007V0.0286407Z" fill="white"/>
</mask>
<g mask="url(#mask0_192_100)">
<path d="M36.1018 5.10156V14.9036L34.4143 16.1224V6.1901L32.7216 5.46614V17.3359L31.1383 18.4766L31.0341 18.5547V4.74218L29.3414 4.01822V62.2526H27.6539V3.29427L25.9612 2.5651V62.2526H24.2737V0.0286407L25.9612 0.752599L27.6539 1.48177L29.3414 2.20052L31.0341 2.92968L32.7216 3.65364L34.4143 4.3776L36.1018 5.10156Z" fill="#4D6C4A"/>
</g>
<mask id="mask1_192_100" style="mask-type:luminance" maskUnits="userSpaceOnUse" x="16" y="0" width="9" height="63">
<path d="M16.5339 0.0286407H24.5339V62.487H16.5339V0.0286407Z" fill="white"/>
</mask>
<g mask="url(#mask1_192_100)">
<path d="M24.2734 0.0286407V62.2526H21.4089V29.2682L20.8828 28.8932L20.1953 28.3932L18.8099 27.3932L17.4245 26.3984L17.2266 26.2526V5.10156L24.2734 0.0286407Z" fill="#323335"/>
</g>
<path d="M47.3725 19.5077V62.2525H45.9819V20.4036L44.5964 19.8046V62.2525H43.2058V19.2161L41.8204 18.6171V62.2525H40.435V18.0234L39.0444 17.4244V62.2525H37.6589V15.3463L39.0444 15.94L40.435 16.5338L41.8204 17.1327L43.2058 17.7265L44.5964 18.3202L45.9819 18.914L47.3725 19.5077Z" fill="#4D6C4A"/>
<path d="M37.6589 15.3463V62.2525H31.8777V19.5077L32.7214 18.9036L34.4141 17.6848L36.1016 16.4661L37.6589 15.3463Z" fill="#323335"/>
<path d="M15.4037 26.5078V62.2526H14.2683V28.2161L13.1381 28.7005V62.2526H12.0027V29.1849L10.8621 29.6744V62.2526H9.72664V30.164L8.59123 30.6484V62.2526H7.45581V29.9192L9.72664 28.9401L10.8621 28.4557L12.0027 27.9713L13.1381 27.4817L14.2683 26.9921L15.4037 26.5078Z" fill="#323335"/>
<path d="M20.1433 29.9193V62.2526H15.4089V26.513L16.6798 27.4297L17.2266 27.8151L18.0704 28.4193L19.4506 29.4193L20.1433 29.9193Z" fill="#4D6C4A"/>
<mask id="mask2_192_100" style="mask-type:luminance" maskUnits="userSpaceOnUse" x="0" y="61" width="55" height="7">
<path d="M0.0234375 61.1536H54.9766V67.9713H0.0234375V61.1536Z" fill="white"/>
</mask>
<g mask="url(#mask2_192_100)">
<path d="M53.1172 67.9557H1.70569C0.549444 67.9557 0.0286099 66.5026 0.924443 65.7682L4.88799 62.5286C5.10674 62.3463 5.38278 62.2526 5.66403 62.2526H49.1536C49.4401 62.2526 49.7161 62.3463 49.9349 62.5286L53.8932 65.7682C54.789 66.5026 54.2734 67.9557 53.1172 67.9557Z" fill="#4D6C4A"/>
</g>
</svg>
