<svg width="77" height="58" viewBox="0 0 77 58" fill="none" xmlns="http://www.w3.org/2000/svg">
<mask id="mask0_192_55" style="mask-type:luminance" maskUnits="userSpaceOnUse" x="22" y="29" width="33" height="29">
<path d="M22.729 29.487H54.729V57.4765H22.729V29.487Z" fill="white"/>
</mask>
<g mask="url(#mask0_192_55)">
<path d="M42.578 29.9453H34.6562C28.4739 29.9453 23.4583 34.9557 23.4583 41.138V53.8932C33.2395 57.4557 43.9791 57.4557 53.7603 53.8932V41.138C53.776 34.9557 48.7603 29.9453 42.578 29.9453Z" fill="#4D6C4A"/>
</g>
<path d="M47.8019 17.086C47.8019 17.6901 47.7446 18.2891 47.6248 18.8776C47.5103 19.4714 47.3332 20.0443 47.104 20.6016C46.8748 21.1589 46.5884 21.6901 46.255 22.1901C45.9217 22.6901 45.5363 23.1537 45.1144 23.5807C44.6873 24.0078 44.2238 24.388 43.7186 24.7266C43.2186 25.0599 42.6873 25.3412 42.13 25.5755C41.5728 25.8047 40.9998 25.9766 40.4113 26.0964C39.8175 26.2162 39.2186 26.2735 38.6144 26.2735C38.0155 26.2735 37.4165 26.2162 36.8228 26.0964C36.2342 25.9766 35.6613 25.8047 35.104 25.5755C34.5467 25.3412 34.0155 25.0599 33.5155 24.7266C33.0103 24.388 32.5467 24.0078 32.1196 23.5807C31.6978 23.1537 31.3123 22.6901 30.979 22.1901C30.6457 21.6901 30.3592 21.1589 30.13 20.6016C29.9009 20.0443 29.7238 19.4714 29.6092 18.8776C29.4894 18.2891 29.4321 17.6901 29.4321 17.086C29.4321 16.4818 29.4894 15.888 29.6092 15.2943C29.7238 14.7005 29.9009 14.1276 30.13 13.5703C30.3592 13.013 30.6457 12.487 30.979 11.9818C31.3123 11.4818 31.6978 11.0182 32.1196 10.5912C32.5467 10.1641 33.0103 9.78387 33.5155 9.45054C34.0155 9.11199 34.5467 8.83074 35.104 8.60158C35.6613 8.3672 36.2342 8.19533 36.8228 8.07554C37.4165 7.96095 38.0155 7.89845 38.6144 7.89845C39.2186 7.89845 39.8175 7.96095 40.4113 8.07554C40.9998 8.19533 41.5728 8.3672 42.13 8.60158C42.6873 8.83074 43.2186 9.11199 43.7186 9.45054C44.2238 9.78387 44.6873 10.1641 45.1144 10.5912C45.5363 11.0182 45.9217 11.4818 46.255 11.9818C46.5884 12.487 46.8748 13.013 47.104 13.5703C47.3332 14.1276 47.5103 14.7005 47.6248 15.2943C47.7446 15.888 47.8019 16.4818 47.8019 17.086Z" fill="#4D6C4A"/>
<mask id="mask1_192_55" style="mask-type:luminance" maskUnits="userSpaceOnUse" x="46" y="21" width="31" height="29">
<path d="M46.729 21.487H76.4686V49.487H46.729V21.487Z" fill="white"/>
</mask>
<g mask="url(#mask1_192_55)">
<path d="M65.505 22.5703H57.5832C53.2238 22.5703 49.4478 25.0703 47.604 28.7109C52.5103 30.7057 55.9842 35.5182 55.9842 41.1276V48.8307C62.9269 49.7161 70.0415 48.9401 76.703 46.5182V33.7682C76.703 27.5807 71.6873 22.5703 65.505 22.5703Z" fill="#4D6C4A"/>
</g>
<mask id="mask2_192_55" style="mask-type:luminance" maskUnits="userSpaceOnUse" x="52" y="0" width="19" height="21">
<path d="M52.0625 0.523453H70.7292V20.1537H52.0625V0.523453Z" fill="white"/>
</mask>
<g mask="url(#mask2_192_55)">
<path d="M70.7292 9.71616C70.7292 10.3151 70.6719 10.9141 70.5521 11.5078C70.4375 12.0964 70.2604 12.6693 70.0312 13.2266C69.7969 13.7839 69.5156 14.3151 69.1823 14.8151C68.8438 15.3203 68.4635 15.7839 68.0365 16.211C67.6146 16.638 67.1458 17.0182 66.6458 17.3516C66.1458 17.6849 65.6146 17.9714 65.0573 18.2005C64.5 18.4297 63.9271 18.6068 63.3333 18.7214C62.7448 18.8412 62.1458 18.8985 61.5417 18.8985C60.9427 18.8985 60.3438 18.8412 59.75 18.7214C59.1615 18.6068 58.5833 18.4297 58.026 18.2005C57.4688 17.9714 56.9427 17.6849 56.4375 17.3516C55.9375 17.0182 55.474 16.638 55.0469 16.211C54.6198 15.7839 54.2396 15.3203 53.9062 14.8151C53.5729 14.3151 53.2865 13.7839 53.0573 13.2266C52.8281 12.6693 52.651 12.0964 52.5365 11.5078C52.4167 10.9141 52.3594 10.3151 52.3594 9.71616C52.3594 9.112 52.4167 8.51304 52.5365 7.91929C52.651 7.33075 52.8281 6.75783 53.0573 6.20054C53.2865 5.64325 53.5729 5.112 53.9062 4.612C54.2396 4.10679 54.6198 3.64325 55.0469 3.21616C55.474 2.79429 55.9375 2.40887 56.4375 2.07554C56.9427 1.7422 57.4688 1.45575 58.026 1.22658C58.5833 0.997413 59.1615 0.82033 59.75 0.705746C60.3438 0.585956 60.9427 0.528664 61.5417 0.528664C62.1458 0.528664 62.7448 0.585956 63.3333 0.705746C63.9271 0.82033 64.5 0.997413 65.0573 1.22658C65.6146 1.45575 66.1458 1.7422 66.6458 2.07554C67.1458 2.40887 67.6146 2.79429 68.0365 3.21616C68.4635 3.64325 68.8438 4.10679 69.1823 4.612C69.5156 5.112 69.7969 5.64325 70.0312 6.20054C70.2604 6.75783 70.4375 7.33075 70.5521 7.91929C70.6719 8.51304 70.7292 9.112 70.7292 9.71616Z" fill="#4D6C4A"/>
</g>
<mask id="mask3_192_55" style="mask-type:luminance" maskUnits="userSpaceOnUse" x="0" y="21" width="31" height="29">
<path d="M0.53125 21.487H30.7292V49.487H0.53125V21.487Z" fill="white"/>
</mask>
<g mask="url(#mask3_192_55)">
<path d="M29.6302 28.7265C27.7865 25.0859 24.0104 22.5859 19.651 22.5859H11.7292C5.54687 22.5703 0.53125 27.5807 0.53125 33.7682V46.5182C7.20833 48.9557 14.3021 49.7161 21.25 48.8307V41.1276C21.25 35.5182 24.724 30.7057 29.6302 28.7265Z" fill="#4D6C4A"/>
</g>
<mask id="mask4_192_55" style="mask-type:luminance" maskUnits="userSpaceOnUse" x="5" y="0" width="21" height="21">
<path d="M5.39575 0.523453H25.3958V20.1537H5.39575V0.523453Z" fill="white"/>
</mask>
<g mask="url(#mask4_192_55)">
<path d="M24.8749 9.71616C24.8749 10.3151 24.8176 10.9141 24.6978 11.5078C24.5833 12.0964 24.4062 12.6693 24.177 13.2266C23.9478 13.7839 23.6614 14.3151 23.328 14.8151C22.9947 15.3203 22.6145 15.7839 22.1874 16.211C21.7603 16.638 21.2968 17.0182 20.7916 17.3516C20.2916 17.6849 19.7655 17.9714 19.2083 18.2005C18.651 18.4297 18.0728 18.6068 17.4843 18.7214C16.8905 18.8412 16.2916 18.8985 15.6926 18.8985C15.0885 18.8985 14.4895 18.8412 13.901 18.7214C13.3072 18.6068 12.7343 18.4297 12.177 18.2005C11.6197 17.9714 11.0885 17.6849 10.5885 17.3516C10.0885 17.0182 9.61971 16.638 9.19784 16.211C8.77075 15.7839 8.39054 15.3203 8.052 14.8151C7.71867 14.3151 7.43742 13.7839 7.20304 13.2266C6.97388 12.6693 6.79679 12.0964 6.68221 11.5078C6.56242 10.9141 6.50513 10.3151 6.50513 9.71616C6.50513 9.112 6.56242 8.51304 6.68221 7.91929C6.79679 7.33075 6.97388 6.75783 7.20304 6.20054C7.43742 5.64325 7.71867 5.112 8.052 4.612C8.39054 4.10679 8.77075 3.64325 9.19784 3.21616C9.61971 2.79429 10.0885 2.40887 10.5885 2.07554C11.0885 1.7422 11.6197 1.45575 12.177 1.22658C12.7343 0.997413 13.3072 0.82033 13.901 0.705746C14.4895 0.585956 15.0885 0.528664 15.6926 0.528664C16.2916 0.528664 16.8905 0.585956 17.4843 0.705746C18.0728 0.82033 18.651 0.997413 19.2083 1.22658C19.7655 1.45575 20.2916 1.7422 20.7916 2.07554C21.2968 2.40887 21.7603 2.79429 22.1874 3.21616C22.6145 3.64325 22.9947 4.10679 23.328 4.612C23.6614 5.112 23.9478 5.64325 24.177 6.20054C24.4062 6.75783 24.5833 7.33075 24.6978 7.91929C24.8176 8.51304 24.8749 9.112 24.8749 9.71616Z" fill="#4D6C4A"/>
</g>
</svg>
