<svg width="96" height="64" viewBox="0 0 96 64" fill="none" xmlns="http://www.w3.org/2000/svg">
<path d="M32.7395 47.0148L27.9931 53.7618C26.9888 55.193 27.2688 57.2325 28.6208 58.3008L28.954 58.5614C29.4996 58.9908 30.1418 59.2004 30.7791 59.2004C31.7159 59.2004 32.6429 58.7506 33.2417 57.8969L37.9832 51.1499C38.9924 49.7187 38.7075 47.6792 37.3555 46.6161L37.0223 46.3503C36.4767 45.9209 35.8345 45.7113 35.202 45.7113C34.2653 45.7113 33.3382 46.1663 32.7395 47.0148Z" fill="#4D6C4A"/>
<path d="M35.1056 52.9133H44.7191V64H35.1056V52.9133Z" fill="white"/>
<path d="M38.9056 54.0992L35.6705 58.7046C34.7725 59.9773 35.0235 61.8021 36.2307 62.7528L37.0901 63.4326C37.5778 63.816 38.1524 64 38.7173 64C39.5575 64 40.3831 63.5962 40.9191 62.8346L44.1542 58.2343C45.0523 56.9616 44.7963 55.1368 43.5941 54.1861L42.7346 53.5063C42.2469 53.1229 41.6723 52.9389 41.1074 52.9389C40.2672 52.9389 39.4416 53.3427 38.9056 54.0992Z" fill="#4D6C4A"/>
<path d="M21.6053 39.0767L20.3016 38.0493C19.8622 37.7069 19.3455 37.5382 18.8385 37.5382C18.0853 37.5382 17.3417 37.9011 16.8589 38.586L14.6812 41.6784C13.8749 42.8285 14.1018 44.4642 15.1882 45.3178L16.4919 46.3503C16.9313 46.6927 17.4431 46.8614 17.9549 46.8614C18.7082 46.8614 19.4518 46.4985 19.9298 45.8136L22.1074 42.7212C22.9138 41.5711 22.6868 39.9355 21.6053 39.0767Z" fill="#4D6C4A"/>
<path d="M31.2572 39.5572C30.673 39.0972 29.9873 38.8774 29.3065 38.8774C28.307 38.8774 27.3123 39.3579 26.675 40.2677L20.8808 48.5022C19.8089 50.0356 20.1083 52.2182 21.552 53.3581C22.1362 53.8181 22.8219 54.0379 23.5027 54.0379C24.4056 54.0379 25.3037 53.6443 25.9411 52.898C26.0376 52.7294 26.139 52.5556 26.2549 52.392L31.0013 45.6449C31.1365 45.4507 31.2862 45.2667 31.4455 45.0929L31.9284 44.4131C33.0051 42.8797 32.7009 40.6971 31.2572 39.5572Z" fill="#4D6C4A"/>
<path d="M0.5 0H23.4014V33.9347H0.5V0Z" fill="white"/>
<path d="M14.9419 1.13984L0.982828 27.5812C0.543438 28.4194 0.823489 29.4775 1.61536 29.9478L6.43899 32.7999C7.23086 33.2651 8.23035 32.9686 8.66974 32.1303L22.6337 5.68389C23.073 4.84562 22.793 3.78755 22.0011 3.32242L17.1775 0.470248C16.3856 -1.40389e-06 15.3861 0.301572 14.9419 1.13984Z" fill="#4D6C4A"/>
<path d="M73.4339 1.45675H95.5V34.272H73.4339V1.45675Z" fill="white"/>
<path d="M73.6415 6.91063L87.6054 33.352C88.0448 34.1902 89.0443 34.4918 89.8362 34.0216L94.6598 31.1694C95.4517 30.6991 95.7318 29.6411 95.2924 28.8028L81.3333 2.36148C80.8891 1.5232 79.8896 1.22163 79.0977 1.69188L74.2741 4.54405C73.4822 5.0143 73.2021 6.07236 73.6415 6.91063Z" fill="#4D6C4A"/>
<path d="M79.3389 42.7365C79.3776 41.5149 78.8416 40.3546 77.9194 39.6134L70.6767 33.8017C68.0548 31.8492 64.7908 29.6104 60.9666 27.1518C55.5781 23.6811 50.4985 20.6807 48.1422 19.3109C47.7753 19.0962 47.3456 19.04 46.94 19.1524L44.2891 19.8885C43.9029 19.9958 43.56 20.2514 43.3379 20.599L43.3331 20.6041C42.5992 21.7439 41.7832 22.7918 40.9044 23.7118C39.8759 24.7954 38.7847 25.695 37.6597 26.3851C36.3125 27.2131 34.9219 27.7345 33.5313 27.939C33.2223 27.985 32.9133 28.0054 32.6139 28.0054C31.5227 28.0054 30.5039 27.7089 29.6734 27.1467C28.6111 26.4311 27.9255 25.3781 27.6985 24.1105C27.4378 22.6384 27.7951 20.9568 28.7994 18.9735C29.5044 17.573 30.3832 16.2952 31.0302 15.3649C31.1847 15.1349 31.3247 14.9355 31.4309 14.772C31.8752 14.1024 32.3918 13.3408 32.9712 12.5434C33.1161 12.3389 32.9616 12.0476 32.7201 12.0782C31.5034 12.2265 28.756 12.0834 24.4297 9.24141C24.0434 8.99095 23.5364 9.12896 23.3191 9.54809L11.3252 32.2632C11.0741 32.7386 11.1369 33.3315 11.4797 33.7404L14.6569 37.528C14.7003 37.5791 14.7486 37.6251 14.8065 37.666L15.1252 37.2162C15.5598 36.5926 16.1392 36.0865 16.7959 35.7441C17.4284 35.4169 18.1334 35.2483 18.8383 35.2483C19.3212 35.2483 19.804 35.3249 20.2627 35.4834C20.7407 35.647 21.1898 35.8923 21.5905 36.2092L22.899 37.2417C23.3964 37.6353 23.8116 38.1209 24.1255 38.6882C24.1979 38.8211 24.2655 38.9592 24.3234 39.0972C24.4055 39.2863 24.6469 39.3118 24.7628 39.1483L24.9318 38.8978C25.4485 38.1669 26.1293 37.5688 26.9018 37.1702C27.6454 36.7868 28.4904 36.5823 29.3016 36.5823C29.8713 36.5823 30.4411 36.6744 30.9819 36.8635C31.5468 37.0577 32.0731 37.3439 32.5511 37.7171C33.1402 38.1822 33.6231 38.7547 33.9949 39.4243C34.3473 40.0683 34.5791 40.7686 34.6805 41.5046C34.7529 42.0158 34.7578 42.532 34.6998 43.0381C34.6757 43.2476 34.8302 43.4316 35.0281 43.4214C35.0861 43.4214 35.144 43.4214 35.2068 43.4214C35.7476 43.4214 36.2932 43.5083 36.8147 43.6872C37.3555 43.8763 37.8624 44.1523 38.3163 44.5101L38.6495 44.7759C40.2863 46.064 41.0058 48.175 40.6774 50.1634C40.6388 50.4189 40.8271 50.6489 41.0685 50.6438C41.083 50.6438 41.0927 50.6438 41.1072 50.6438C41.6238 50.6438 42.1308 50.7307 42.6185 50.8994C43.1255 51.0732 43.5987 51.3288 44.0236 51.6712L44.8879 52.3459C47.0558 54.0583 47.5049 57.3091 45.8922 59.6041L45.4673 60.2073C45.2693 60.4935 45.3128 60.8973 45.5832 61.1069C45.6314 61.1427 45.6846 61.1733 45.7377 61.1938C46.7034 61.5567 55.9982 64.8996 58.6248 60.2073C58.7987 59.9006 58.6828 59.5019 58.3786 59.3435L49.7067 54.8556C49.1804 54.5847 48.91 53.9509 49.079 53.3631C49.2045 52.9338 49.557 52.5453 50.4116 52.5044C50.5034 52.4993 50.5951 52.5248 50.6772 52.5657L59.5954 57.4931C60.5948 58.0452 61.7344 58.2803 62.8546 58.1321C64.2307 57.9532 65.7227 57.2018 65.853 54.825C65.8868 54.2014 65.5875 53.6136 65.0757 53.2967L53.9461 46.432C53.5115 46.1662 53.2749 45.6398 53.3618 45.1184C53.4391 44.6226 53.6853 44.1268 54.371 44.0961C54.5931 44.091 54.8152 44.1523 55.0083 44.2699L66.7029 51.4668C67.2919 51.8297 67.9631 52.0035 68.6391 51.9728C69.8124 51.9115 71.5168 51.5383 72.1928 49.9231C72.7867 48.5073 72.2653 46.841 71.005 46.0436L58.1999 37.9113C57.8233 37.6711 57.6012 37.2315 57.6302 36.7612C57.6688 36.1479 57.9633 35.4527 59.1511 35.6521C59.296 35.6776 59.436 35.7339 59.5616 35.8156L74.1049 44.9906C75.1865 45.6755 76.5143 45.788 77.6683 45.2615C78.5326 44.8731 79.2955 44.1319 79.3389 42.7365Z" fill="#4D6C4A"/>
<path d="M84.6551 32.8306L72.5164 9.83437C72.4198 9.65036 72.217 9.56347 72.0287 9.62481C71.1547 9.89571 70.0635 10.1768 69.909 10.1973C69.4358 10.2586 68.9674 10.2893 68.4943 10.2893C66.896 10.2893 65.3026 9.95194 63.7913 9.40502C60.2714 8.12716 55.9016 7.75403 52.0002 7.75403C49.1128 7.75403 46.4861 7.95849 44.6561 8.1425C43.1448 8.29073 41.6818 8.40829 40.2188 8.86321C38.8427 9.29256 37.6693 10.2842 36.7085 11.3831C36.4526 11.6745 36.2063 11.9709 35.9601 12.2725C34.9799 13.489 34.0673 14.7873 33.203 16.0907C31.9331 17.9973 27.882 23.2263 30.8371 25.2146C31.3634 25.5673 31.9862 25.7104 32.6139 25.7104C32.8216 25.7104 33.034 25.6951 33.2368 25.6644C35.6028 25.3219 37.7176 23.8294 39.3786 22.0864C40.1801 21.2379 40.9044 20.3025 41.5418 19.3109C41.6528 19.1423 42.0874 18.1302 42.2709 18.0791L46.3268 16.9495L47.6836 16.5763C47.7174 16.5661 47.756 16.561 47.7946 16.561C47.8671 16.561 47.9347 16.5814 48.0023 16.6172C50.093 17.8184 68.3204 28.399 78.7789 37.9574C78.7837 37.9574 78.7837 37.9574 78.7837 37.9574C78.9286 38.0903 79.141 38.0903 79.2859 37.9625L84.631 33.3111C84.7275 33.168 84.7372 32.984 84.6551 32.8306Z" fill="#4D6C4A"/>
</svg>
